<svg width="354" height="299" viewBox="0 0 354 299" fill="none" xmlns="http://www.w3.org/2000/svg">
<path d="M186.248 299C158.856 299 135.246 292.581 116.077 279.921C98.6254 268.388 87.5108 253.453 82.9903 235.484C63.4111 236.706 45.5738 231.021 29.8807 218.589C12.9516 205.158 3.09774 187.554 0.588653 166.261C-1.92043 144.878 3.59956 125.442 16.9952 108.489L53.1011 62.8461C59.2556 55.1299 66.6004 48.7646 74.9695 43.887C76.0437 36.5561 78.4408 29.3703 82.1152 22.4953C89.4019 8.8033 99.9401 1.85784 113.439 1.85784C117.57 1.85784 122.298 3.15493 127.901 5.81128C132.89 8.17755 136.934 10.8339 139.924 13.714C146.273 8.2397 154.145 5.46732 163.376 5.46732C173.326 5.46732 181.993 7.42333 189.135 11.2773C193.672 13.7389 197.388 16.8138 200.25 20.4647C205.143 11.4348 211.825 5.2684 220.123 2.1645C229.55 -1.35796 240.246 -0.578871 251.887 4.48518C263.897 9.70256 271.333 19.4411 274.008 33.4232C274.066 33.7174 274.095 34.0241 274.095 34.3225V39.5564C275.676 40.2526 277.272 41.0234 278.848 41.8398C290.042 47.6084 299.506 55.7639 306.937 66.0826L339.448 111.738C343.574 117.577 346.867 123.727 349.239 130.03C349.339 130.237 349.418 130.448 349.488 130.664C349.538 130.805 349.579 130.941 349.617 131.086C354.071 143.394 355.137 156.585 352.785 170.298C349.165 191.457 338.411 208.543 320.81 221.079C310.716 228.228 299.9 232.79 288.594 234.672C288.49 234.978 288.374 235.297 288.271 235.621C288.225 235.753 288.175 235.882 288.113 236.01C277.086 260.833 264.15 277.824 249.668 286.518C241.983 291.126 232.718 294.45 222.122 296.385C212.658 298.121 200.585 299 186.248 299ZM92.6285 234.319C96.7384 249.528 106.186 261.853 121.39 271.898C138.953 283.497 160.776 289.377 186.248 289.377C200.009 289.377 211.505 288.561 220.401 286.933C229.844 285.2 238.027 282.287 244.716 278.276C257.428 270.642 269.044 255.172 279.234 232.297C279.665 231.058 280.088 229.856 280.519 228.696C283.858 219.421 286.653 211.995 288.826 206.637C293.525 195.112 299.282 186.505 305.938 181.039C315.448 173.319 322.386 167.264 326.575 163.037C336.408 153.112 337.88 147.903 337.88 145.678C337.88 141.662 337.358 138.127 336.337 135.16C335.367 132.309 333.961 130.017 332.037 128.123C328.084 124.145 322.332 122.226 314.415 122.226C302.935 122.226 293.019 126.101 284.103 134.054C274.941 142.234 270.483 151.741 270.483 163.112C270.483 164.488 269.898 165.793 268.874 166.709C267.846 167.621 266.477 168.047 265.121 167.89C260.186 167.314 254.52 167.807 248.291 169.349C241.618 170.99 235.29 173.609 229.488 177.148C222.661 181.271 217.324 186.07 213.604 191.416C213.558 191.478 213.517 191.544 213.459 191.606C213.206 191.938 212.973 192.294 212.762 192.651C212.737 192.705 212.704 192.746 212.679 192.792C212.658 192.829 212.637 192.866 212.612 192.891C209.282 198.104 207.287 204.018 206.682 210.458C206.429 213.106 204.082 215.037 201.431 214.801C198.786 214.552 196.845 212.202 197.089 209.563C197.736 202.7 199.665 196.31 202.833 190.517L201.328 188.378C186.535 175.076 171.41 175.155 153.788 188.623L140.135 205.895C127.71 221.415 111.751 230.954 92.6285 234.319ZM74.3723 55.7349C69.2588 59.4107 64.6595 63.7951 60.6408 68.8301L24.5514 114.452C12.6281 129.541 7.91684 146.125 10.1522 165.138C12.3834 184.081 20.794 199.095 35.861 211.055C50.7454 222.849 67.1063 227.61 85.856 225.596C86.1256 225.538 86.4035 225.501 86.6855 225.476C105.614 223.213 120.639 214.855 132.608 199.915L146.605 182.199C146.845 181.897 147.123 181.619 147.43 181.383C168.859 164.769 189.873 164.857 208.212 181.636C208.362 181.781 208.515 181.938 208.648 182.096C212.82 177.189 218.128 172.772 224.486 168.926C231.126 164.886 238.359 161.885 245.99 160.012C251.339 158.694 256.37 158.044 261.11 158.048C262.321 146.096 267.883 135.633 277.687 126.884C288.3 117.407 300.654 112.608 314.411 112.608C320.507 112.608 325.836 113.603 330.361 115.567L299.116 71.6895C292.596 62.6348 284.281 55.4655 274.419 50.389C271.893 49.0712 269.363 47.9357 266.879 47.0158C266.17 46.7381 265.527 46.506 264.88 46.2905C261.401 45.1095 257.838 44.2185 254.226 43.6383C254.674 47.3722 255.031 50.5589 255.304 53.1407C255.806 58.4741 256.047 61.9427 256.047 63.791C256.047 77.7772 254.993 88.0959 252.828 95.2154C252.957 95.0787 253.09 94.9378 253.226 94.7969C257.204 90.8849 262.002 88.9247 267.547 88.9247C273.104 88.9247 277.89 90.8932 281.78 94.7803C285.708 98.7089 287.707 103.512 287.707 109.065C287.707 114.626 285.708 119.421 281.76 123.312C277.911 127.208 273.113 129.205 267.547 129.205C261.99 129.205 257.179 127.216 253.251 123.283C249.361 119.396 247.391 114.61 247.391 109.061C247.391 108.008 247.462 106.989 247.603 105.986C241.643 114.286 232.453 118.621 220.559 118.621C212.119 118.621 204.339 115.376 197.425 108.978C193.867 105.679 191.055 101.883 189.023 97.6231C187.667 99.057 186.112 100.466 184.357 101.842C177.357 107.387 170.294 110.205 163.393 110.205C152.697 110.205 142.943 104.689 134.395 93.8147C132.956 91.9748 131.642 90.1017 130.46 88.2244C125.981 93.9764 123.666 95.8951 122.244 96.8399C118.549 99.2518 113.979 100.466 108.637 100.466C97.3812 100.466 88.4854 95.2362 82.2023 84.9257C77.3542 76.9815 74.729 67.1642 74.3723 55.7349ZM344.383 156.021C342.048 160.203 338.407 164.765 333.413 169.805C328.98 174.276 321.78 180.567 312.034 188.494C306.643 192.912 301.832 200.239 297.743 210.263C296.275 213.889 294.508 218.497 292.464 224.034C300.372 221.983 308.007 218.369 315.236 213.243C330.9 202.095 340.086 187.512 343.305 168.681C344.039 164.392 344.4 160.17 344.383 156.021ZM267.539 98.5431C264.532 98.5431 262.147 99.5128 260.024 101.61C257.979 103.682 257.005 106.065 257.005 109.065C257.005 112.049 257.971 114.415 260.045 116.487C262.164 118.596 264.54 119.591 267.534 119.591C270.512 119.591 272.868 118.613 274.937 116.512C277.086 114.398 278.06 112.044 278.06 109.069C278.06 106.081 277.077 103.702 274.962 101.585C272.889 99.5087 270.525 98.5431 267.539 98.5431ZM195.215 85.6178C196.368 92.2068 199.233 97.5485 203.957 101.929C209.096 106.686 214.524 109.007 220.542 109.007C232.158 109.007 239.325 104.216 243.095 93.9391C245.297 87.9675 246.413 77.8228 246.413 63.791C246.413 62.7425 246.292 60.2063 245.712 54.0855C245.363 50.7081 244.841 46.1828 244.161 40.6961C244.094 40.1615 244.119 39.6435 244.223 39.142C244.136 38.7193 244.111 38.2801 244.136 37.8284C244.335 35.1803 246.628 33.1994 249.291 33.3859C254.433 33.763 259.522 34.6747 264.461 36.0837V34.7949C262.33 24.2192 256.959 17.1868 248.042 13.3038C238.632 9.21771 230.603 8.5215 223.487 11.1779C216.416 13.8176 211.024 19.4909 207.001 28.5291C206.686 29.1963 206.416 29.7972 206.164 30.3773C206.114 30.5431 206.052 30.7006 205.989 30.858C202.103 39.6642 199.337 47.31 197.769 53.5924C195.704 61.5697 194.663 70.0485 194.663 78.8174C194.663 81.1173 194.842 83.3427 195.186 85.452C195.202 85.51 195.206 85.5597 195.215 85.6178ZM135.486 77.3918C137.07 80.8728 139.256 84.4118 141.964 87.8887C148.674 96.4255 155.683 100.586 163.376 100.586C168.054 100.586 173.106 98.4685 178.381 94.2872C182.014 91.4319 184.411 88.6139 185.519 85.8788C185.199 83.5955 185.042 81.2292 185.042 78.8174C185.042 69.2321 186.186 59.9453 188.442 51.2179C189.898 45.4037 192.27 38.566 195.505 30.8663C195.285 30.597 195.095 30.3027 194.933 29.9795C192.793 25.7152 189.4 22.3627 184.548 19.7271C178.837 16.648 171.708 15.0857 163.376 15.0857C155.086 15.0857 148.596 17.8912 143.532 23.6639C141.773 25.6324 140.202 27.953 138.829 30.5887C136.585 34.8198 134.897 39.573 133.79 44.7614C132.662 49.9871 132.09 55.7805 132.09 61.9759C132.09 67.1352 133.213 72.2739 135.428 77.255C135.449 77.3089 135.465 77.3462 135.486 77.3918ZM84.2303 47.3804C84.0478 49.208 83.9566 51.0852 83.9566 52.9666C83.9566 63.8034 86.1298 72.8789 90.418 79.9321C94.8929 87.2713 100.852 90.8476 108.629 90.8476C112.071 90.8476 114.87 90.1555 116.948 88.8046C117.699 88.3073 120.025 86.3098 125.599 78.6682C123.513 73.2187 122.468 67.6242 122.468 61.9883C122.468 55.105 123.111 48.632 124.38 42.7598C125.67 36.7095 127.664 31.1067 130.306 26.1214C131.273 24.2607 132.334 22.5077 133.487 20.8791C131.244 18.6413 127.971 16.4988 123.774 14.5055C119.548 12.4998 116.073 11.4804 113.444 11.4804C103.648 11.4804 96.1785 16.5693 90.6171 27.0289C87.1085 33.5807 84.9644 40.4267 84.2303 47.3804ZM75.5916 190.836C70.955 190.836 66.9363 189.17 63.6434 185.879C60.3919 182.63 58.7413 178.631 58.7413 173.998V161.376H46.1088C41.4556 161.376 37.4452 159.697 34.1896 156.39C30.9382 153.195 29.2627 149.196 29.2627 144.542C29.2627 139.909 30.9299 135.894 34.2187 132.603C37.4743 129.354 41.4722 127.709 46.1088 127.709H58.7413V115.078C58.7413 110.461 60.3836 106.454 63.6144 103.168C66.9612 99.8858 70.9674 98.2448 75.5916 98.2448C80.2324 98.2448 84.2303 99.8941 87.4818 103.139C90.7705 106.433 92.4419 110.445 92.4419 115.078V127.709H105.079C109.699 127.709 113.713 129.346 116.998 132.57C120.291 135.918 121.929 139.922 121.929 144.542C121.929 149.175 120.282 153.17 117.027 156.419C113.738 159.71 109.715 161.376 105.079 161.376H92.4377V173.998C92.4377 178.652 90.7581 182.655 87.4486 185.908C84.2511 189.153 80.2448 190.836 75.5916 190.836ZM46.1088 137.323C44.0601 137.323 42.4468 137.986 41.0285 139.404C39.5686 140.862 38.8885 142.495 38.8885 144.538C38.8885 146.569 39.5603 148.168 40.9994 149.586C42.4717 151.082 44.0808 151.753 46.1088 151.753H63.5604C66.2188 151.753 68.3754 153.908 68.3754 156.56V173.994C68.3754 176.041 69.0348 177.658 70.4532 179.079C71.913 180.538 73.547 181.217 75.5916 181.217C77.6238 181.217 79.2287 180.546 80.6429 179.108C82.1442 177.633 82.812 176.029 82.812 173.998V156.564C82.812 153.908 84.9727 151.757 87.6269 151.757H105.079C107.127 151.757 108.757 151.077 110.217 149.619C111.635 148.197 112.299 146.585 112.299 144.538C112.299 142.479 111.627 140.833 110.188 139.37C108.786 137.991 107.14 137.323 105.079 137.323H87.6269C84.9685 137.323 82.812 135.173 82.812 132.516V115.078C82.812 113.035 82.136 111.402 80.672 109.948C79.2536 108.526 77.6403 107.871 75.5916 107.871C73.5263 107.871 71.884 108.539 70.4241 109.977C69.0431 111.377 68.3712 113.022 68.3712 115.078V132.512C68.3712 135.168 66.2147 137.319 63.5563 137.319L46.1088 137.323ZM226.925 161.371C221.367 161.371 216.557 159.382 212.625 155.454C208.735 151.562 206.769 146.78 206.769 141.227C206.769 135.686 208.731 130.892 212.608 126.967C212.621 126.955 212.637 126.934 212.654 126.922C216.577 123.047 221.38 121.087 226.925 121.087C232.478 121.087 237.268 123.059 241.158 126.947C245.09 130.871 247.084 135.678 247.084 141.231C247.084 146.797 245.085 151.587 241.133 155.478C237.284 159.374 232.49 161.371 226.925 161.371ZM219.431 133.751C217.361 135.86 216.395 138.239 216.395 141.231C216.395 144.219 217.361 146.577 219.431 148.653C221.55 150.767 223.926 151.753 226.925 151.753C229.898 151.753 232.254 150.771 234.323 148.678C236.472 146.552 237.454 144.207 237.454 141.231C237.454 138.239 236.463 135.86 234.352 133.751C232.27 131.675 229.911 130.709 226.925 130.709C223.926 130.705 221.55 131.675 219.431 133.751Z" fill="#EB284C"/>
</svg>
